<svg width="256" height="256" viewBox="0 0 256 256" fill="none" xmlns="http://www.w3.org/2000/svg">
<path fill-rule="evenodd" clip-rule="evenodd" d="M187.937 196.954C184.4 199.19 176.384 202 171.01 202H115.848C110.971 202 107.018 198.047 107.018 193.17C107.018 188.293 110.971 184.34 115.848 184.34H173.953C173.926 184.34 173.939 184.336 173.995 184.32C174.273 184.239 175.626 183.843 178.5 182.027C181.22 180.307 184.198 178.061 187.641 175.463C188.127 175.096 188.623 174.721 189.129 174.341C193.012 171.419 197.427 168.154 201.838 165.635C206.088 163.207 211.459 160.792 217.159 160.792H236.527C241.404 160.792 245.358 164.746 245.358 169.623C245.358 174.499 241.404 178.453 236.527 178.453H217.159C216.155 178.453 214.077 178.982 210.598 180.969C207.28 182.864 203.688 185.487 199.749 188.452C199.277 188.806 198.798 189.168 198.313 189.534C194.958 192.069 191.327 194.811 187.937 196.954Z" fill="url(#paint0_linear_3316_73410)"/>
<path fill-rule="evenodd" clip-rule="evenodd" d="M166.752 184.34C184.193 170.035 195.321 148.317 195.321 124C195.321 80.9218 160.399 46 117.321 46C74.2426 46 39.3208 80.9218 39.3208 124C39.3208 166.588 73.4521 201.204 115.853 201.986L115.848 202H117.321H165.886C173.245 202 189.433 174.038 189.433 174.038C189.433 174.038 174.716 184.34 173.913 184.34H166.752Z" fill="#303740"/>
<path d="M121.736 193.17C159.124 193.17 189.434 162.86 189.434 125.472C189.434 88.0831 159.124 57.7736 121.736 57.7736C84.3471 57.7736 54.0376 88.0831 54.0376 125.472C54.0376 162.86 84.3471 193.17 121.736 193.17Z" fill="#0B1014"/>
<path d="M121.735 169.623C146.119 169.623 165.886 149.856 165.886 125.472C165.886 101.088 146.119 81.3208 121.735 81.3208C97.3515 81.3208 77.5845 101.088 77.5845 125.472C77.5845 149.856 97.3515 169.623 121.735 169.623Z" fill="url(#paint1_linear_3316_73410)"/>
<path fill-rule="evenodd" clip-rule="evenodd" d="M201.207 122.528C201.207 164.794 166.945 199.057 124.679 199.057C82.4138 199.057 48.1509 164.794 48.1509 122.528C48.1509 80.2629 82.4138 46 124.679 46C166.945 46 201.207 80.2629 201.207 122.528ZM142.339 81.3208C142.339 92.6999 133.115 101.925 121.736 101.925C110.357 101.925 101.132 92.6999 101.132 81.3208C101.132 69.9416 110.357 60.717 121.736 60.717C133.115 60.717 142.339 69.9416 142.339 81.3208ZM80.5284 134.302C91.9076 134.302 101.132 125.077 101.132 113.698C101.132 102.319 91.9076 93.0943 80.5284 93.0943C69.1493 93.0943 59.9247 102.319 59.9247 113.698C59.9247 125.077 69.1493 134.302 80.5284 134.302ZM183.547 113.698C183.547 125.077 174.322 134.302 162.943 134.302C151.564 134.302 142.34 125.077 142.34 113.698C142.34 102.319 151.564 93.0943 162.943 93.0943C174.322 93.0943 183.547 102.319 183.547 113.698ZM148.226 181.396C159.605 181.396 168.83 172.172 168.83 160.792C168.83 149.413 159.605 140.189 148.226 140.189C136.847 140.189 127.622 149.413 127.622 160.792C127.622 172.172 136.847 181.396 148.226 181.396ZM115.848 160.792C115.848 172.172 106.624 181.396 95.2447 181.396C83.8655 181.396 74.6409 172.172 74.6409 160.792C74.6409 149.413 83.8655 140.189 95.2447 140.189C106.624 140.189 115.848 149.413 115.848 160.792Z" fill="url(#paint2_linear_3316_73410)"/>
<path d="M121.735 137.245C128.237 137.245 133.509 131.974 133.509 125.472C133.509 118.969 128.237 113.698 121.735 113.698C115.233 113.698 109.961 118.969 109.961 125.472C109.961 131.974 115.233 137.245 121.735 137.245Z" fill="url(#paint3_linear_3316_73410)"/>
<defs>
<linearGradient id="paint0_linear_3316_73410" x1="107.018" y1="181.396" x2="245.358" y2="181.396" gradientUnits="userSpaceOnUse">
<stop stop-color="#657182"/>
<stop offset="1" stop-color="#10161D"/>
</linearGradient>
<linearGradient id="paint1_linear_3316_73410" x1="77.5845" y1="125.472" x2="165.886" y2="125.472" gradientUnits="userSpaceOnUse">
<stop stop-color="#657182"/>
<stop offset="1" stop-color="#10161D"/>
</linearGradient>
<linearGradient id="paint2_linear_3316_73410" x1="48.1509" y1="122.528" x2="201.207" y2="122.528" gradientUnits="userSpaceOnUse">
<stop stop-color="#222C38"/>
<stop offset="1" stop-color="#10161D"/>
</linearGradient>
<linearGradient id="paint3_linear_3316_73410" x1="133.509" y1="125.472" x2="109.961" y2="125.472" gradientUnits="userSpaceOnUse">
<stop stop-color="#B08A00"/>
<stop offset="1" stop-color="#EEC42B"/>
</linearGradient>
</defs>
</svg>
